<svg xmlns="http://www.w3.org/2000/svg">
  <symbol viewBox="0 0 25 15" id="icon-vk">
  <path fill-rule="evenodd" clip-rule="evenodd"
    d="M24.116 1.804c.166-.546 0-.948-.795-.948h-2.625c-.668 0-.976.347-1.143.73 0 0-1.335 3.196-3.226 5.272-.612.602-.89.793-1.224.793-.167 0-.418-.19-.418-.738V1.804c0-.656-.184-.948-.74-.948H9.817c-.417 0-.668.304-.668.593 0 .621.946.765 1.043 2.513V7.76c0 .833-.153.984-.487.984-.89 0-3.055-3.21-4.34-6.885-.249-.715-.5-1.003-1.172-1.003H1.566c-.75 0-.9.347-.9.73 0 .682.89 4.07 4.145 8.551 2.17 3.06 5.225 4.72 8.008 4.72 1.67 0 1.875-.369 1.875-1.004V11.54c0-.737.158-.884.687-.884.39 0 1.057.192 2.615 1.667 1.78 1.75 2.073 2.533 3.075 2.533h2.625c.75 0 1.126-.368.91-1.096-.238-.724-1.088-1.775-2.215-3.022-.612-.71-1.53-1.475-1.809-1.858-.389-.49-.278-.71 0-1.147 0 0 3.2-4.426 3.533-5.929h.001Z" />
</symbol>
<symbol viewBox="0 0 18 16" id="icon-telegram">
<path
  d="M16.785.956.84 7.104C-.248 7.541-.24 8.148.64 8.42l4.094 1.277 9.472-5.976c.448-.272.857-.126.52.173l-7.673 6.925H7.05l.002.001-.283 4.22c.414 0 .597-.19.829-.414l1.988-1.934 4.136 3.055c.762.42 1.31.205 1.5-.706l2.715-12.795c.278-1.114-.425-1.618-1.153-1.29Z" />
</symbol>
<symbol viewBox="0 0 23 18" id="icon-youtube">
<path
  d="M18.94.356H3.507C1.647.356.333 1.95.333 3.756V13.85c0 1.913 1.314 3.506 3.174 3.506H19.16c1.642 0 3.174-1.593 3.174-3.4v-10.2c-.219-1.806-1.532-3.4-3.393-3.4ZM7.995 12.894V4.819l7.333 4.037-7.333 4.038Z" />
</symbol>
<symbol viewBox="0 0 27 35" id="icon-academy">
  <path d="M13.6 0h-.1L0 1.4v24.7l13.5 8 13.4-8V1.4L13.6 0ZM25 12.1 13.5 5.3v-.1h-.1l-.1-.1v.1L1.9 12.1v-9l11.5-1.2L25 3.1v9ZM13.4 6.8l11.5 6.7-4.5 2.6-7.1-4.2v1.4l5.9 3.5-.9.5-5-3v1.4l3.8 2.3-.8.5-3-1.8v1.4l1.9 1.1-1.8 1.1L2 13.6l11.4-6.8ZM1.9 15.1l11.4 6.8v1l-7.9-4.7v1.4l8 4.8v1.1l-8-4.7v1.4l8 4.8 8.1-4.9v-5.2l3.4-2v10l-11.5 6.9L1.9 25v-9.9Z"/>
</symbol>
</svg>
